<?xml version="1.0" encoding="UTF-8" standalone="no"?> <!-- Created with Vectornator for iOS (http://vectornator.io/) --><!DOCTYPE svg PUBLIC "-//W3C//DTD SVG 1.1//EN" "http://www.w3.org/Graphics/SVG/1.1/DTD/svg11.dtd">
<svg height="100%" style="fill-rule:nonzero;clip-rule:evenodd;stroke-linecap:round;stroke-linejoin:round;" xmlns:xlink="http://www.w3.org/1999/xlink" xmlns="http://www.w3.org/2000/svg" xml:space="preserve" width="100%" xmlns:vectornator="http://vectornator.io" version="1.1" viewBox="0 0 612 438">
<metadata>
<vectornator:setting key="DimensionsVisible" value="1"/>
<vectornator:setting key="PencilOnly" value="0"/>
<vectornator:setting key="SnapToPoints" value="0"/>
<vectornator:setting key="OutlineMode" value="0"/>
<vectornator:setting key="RulersVisible" value="1"/>
<vectornator:setting key="GuidesVisible" value="1"/>
<vectornator:setting key="SnapToEdges" value="0"/>
<vectornator:setting key="CMYKEnabledKey" value="0"/>
<vectornator:setting key="DisplayWhiteBackground" value="0"/>
<vectornator:setting key="doHistoryDisabled" value="0"/>
<vectornator:setting key="TimeLapseWatermarkDisabled" value="0"/>
<vectornator:setting key="SnapToGuides" value="1"/>
<vectornator:setting key="DynamicGuides" value="0"/>
<vectornator:setting key="IsolateActiveLayer" value="0"/>
<vectornator:setting key="Units" value="Points"/>
<vectornator:setting key="SnapToGrid" value="0"/>
</metadata>
<defs/>
<g id="Layer 1" vectornator:layerName="Layer 1">
<path d="M328.472+258.121C328.472+253.908+329.33+251.807+333.425+251.807C336.983+251.807+338.192+253.563+338.192+256.329C338.192+256.664+338.181+257.142+338.156+257.472C336.653+257.664+334.202+257.857+332.776+257.923L328.472+258.121ZM333.045+266.693C336.126+266.693+337.998+266.44+339.866+266.155L339.663+264.359C337.988+264.587+336.034+264.815+333.913+264.815C329.807+264.815+328.796+263.115+328.523+259.801L332.385+259.643C334.659+259.552+338.521+259.187+340.389+258.877C340.414+258.395+340.435+257.791+340.435+257.334C340.435+252.878+338.943+250.01+333.425+250.01C328.076+250.01+326.31+252.447+326.31+258.359C326.31+263.161+327.715+266.693+333.045+266.693M317.753+245.986L317.753+250.228L314.773+250.228L314.773+251.985L317.753+251.985L317.753+262.44C317.753+265.394+319.032+266.693+322.042+266.693C322.579+266.693+323.255+266.612+323.803+266.521L323.62+264.831C323.331+264.856+323.036+264.876+322.737+264.876C320.763+264.876+319.966+264.455+319.966+262.141L319.966+251.985L323.594+251.985L323.594+250.228L319.966+250.228L319.966+245.625L317.753+245.986ZM300.542+261.79C300.542+259.542+301.354+258.801+303.206+258.425C304.917+258.075+307.521+258.019+309.383+257.984L309.383+261.608C309.383+262.379+309.363+263.394+309.317+264.171C307.922+264.719+306.333+264.902+304.917+264.902C301.857+264.902+300.542+264.298+300.542+261.79M299.512+252.305C301.252+252.056+303.07+251.837+304.952+251.837C308.48+251.837+309.383+252.934+309.383+255.599L309.383+256.319C306.896+256.4+304.415+256.492+302.435+256.796C299.522+257.233+298.329+259.019+298.329+261.846C298.329+265.374+300.324+266.698+304.678+266.698C307.272+266.698+309.556+266.343+311.474+265.404C311.53+264.511+311.566+263.577+311.566+262.623L311.566+254.929C311.566+250.883+308.825+250.01+305.364+250.01C303.055+250.01+301.171+250.279+299.314+250.569L299.512+252.305ZM283.245+255.208C283.245+254.441+283.265+253.426+283.311+252.66C284.326+252.203+286.371+251.868+287.726+251.868C291.812+251.868+292.36+253.254+292.36+256.319L292.36+266.485L294.573+266.485L294.573+255.918C294.573+252.624+294.01+250.01+288.467+250.01C285.539+250.01+282.961+250.569+281.113+251.366C281.057+252.259+281.032+253.188+281.032+254.137L281.032+266.485L283.245+266.485L283.245+255.208ZM269.577+264.815C265.917+264.815+264.674+263.486+264.674+258.349C264.674+253.203+265.917+251.894+269.577+251.894C273.322+251.894+274.489+253.421+274.489+258.349C274.489+263.288+273.292+264.815+269.577+264.815M269.577+266.693C274.825+266.693+276.703+264.303+276.703+258.349C276.703+252.365+274.825+250.015+269.577+250.015C264.334+250.015+262.43+252.284+262.43+258.349C262.43+264.425+264.334+266.693+269.577+266.693M255.99+266.485L258.203+266.485L258.203+250.223L255.99+250.223L255.99+266.485ZM257.106+246.95C258.167+246.95+258.451+246.539+258.451+245.336C258.451+244.138+258.136+243.707+257.106+243.707C256.076+243.707+255.771+244.138+255.771+245.336C255.771+246.539+256.046+246.95+257.106+246.95M247.59+251.868C249.087+251.868+250.457+252.051+251.666+252.259L251.879+250.549C250.158+250.193+248.636+250.01+246.58+250.01C243.286+250.01+240.946+250.964+240.946+254.36C240.946+257.705+243.479+258.309+246.047+259.075C248.6+259.831+250.046+260.197+250.046+262.263C250.046+264.81+247.225+264.81+245.306+264.81C243.946+264.81+242.449+264.648+241.119+264.43L240.9+266.16C242.611+266.531+244.331+266.698+246.088+266.698C249.645+266.698+252.3+265.719+252.3+262.135C252.3+259.131+250.468+258.298+247.184+257.283C244.839+256.563+243.159+256.324+243.159+254.152C243.159+251.914+245.717+251.868+247.59+251.868M233.11+251.868C234.607+251.868+235.977+252.051+237.185+252.259L237.398+250.549C235.678+250.193+234.155+250.01+232.1+250.01C228.806+250.01+226.466+250.964+226.466+254.36C226.466+257.705+228.999+258.309+231.567+259.075C234.12+259.831+235.566+260.197+235.566+262.263C235.566+264.81+232.744+264.81+230.826+264.81C229.465+264.81+227.968+264.648+226.639+264.43L226.42+266.16C228.131+266.531+229.851+266.698+231.608+266.698C235.165+266.698+237.82+265.719+237.82+262.135C237.82+259.131+235.988+258.298+232.704+257.283C230.359+256.563+228.679+256.324+228.679+254.152C228.679+251.914+231.237+251.868+233.11+251.868M211.524+261.79C211.524+259.542+212.336+258.801+214.189+258.425C215.899+258.075+218.503+258.019+220.365+257.984L220.365+261.608C220.365+262.379+220.345+263.394+220.299+264.171C218.904+264.719+217.315+264.902+215.899+264.902C212.839+264.902+211.524+264.298+211.524+261.79M210.494+252.305C212.235+252.056+214.052+251.837+215.934+251.837C219.462+251.837+220.365+252.934+220.365+255.599L220.365+256.319C217.879+256.4+215.397+256.492+213.417+256.796C210.504+257.233+209.311+259.019+209.311+261.846C209.311+265.374+211.306+266.698+215.661+266.698C218.254+266.698+220.538+266.343+222.457+265.404C222.512+264.511+222.548+263.577+222.548+262.623L222.548+254.929C222.548+250.883+219.807+250.01+216.346+250.01C214.037+250.01+212.154+250.279+210.296+250.569L210.494+252.305ZM194.933+264.232L194.933+255.127C194.933+254.355+194.958+253.345+194.999+252.569C196.115+252.066+197.668+251.837+198.932+251.837C202.977+251.837+204.048+253.99+204.048+258.359C204.048+262.917+203.262+264.871+198.729+264.871C197.475+264.871+195.948+264.582+194.933+264.232M194.933+266.089C196.379+266.46+197.897+266.698+199.444+266.698C204.302+266.698+206.261+264.582+206.261+258.359C206.261+252.02+204.109+250.01+198.932+250.01C196.871+250.01+194.603+250.376+192.801+251.31C192.745+252.203+192.72+253.132+192.72+254.081L192.72+272.484L194.933+272.484L194.933+266.089Z" opacity="1" fill="#3276b4"/>
<path d="M517.415+258.121C517.415+253.908+518.273+251.807+522.368+251.807C525.926+251.807+527.134+253.563+527.134+256.329C527.134+256.664+527.124+257.142+527.099+257.472C525.596+257.664+523.145+257.857+521.719+257.923L517.415+258.121ZM521.988+266.693C525.068+266.693+526.941+266.44+528.809+266.155L528.606+264.359C526.931+264.587+524.977+264.815+522.856+264.815C518.75+264.815+517.739+263.115+517.466+259.801L521.328+259.643C523.602+259.552+527.464+259.187+529.332+258.877C529.357+258.395+529.378+257.791+529.378+257.334C529.378+252.878+527.886+250.01+522.368+250.01C517.019+250.01+515.253+252.447+515.253+258.359C515.253+263.161+516.658+266.693+521.988+266.693M512.39+264.435C511.603+264.597+510.482+264.78+509.649+264.78C504.467+264.78+504.092+262.399+504.092+258.177C504.092+253.675+504.589+251.898+509.675+251.898C510.563+251.898+511.669+252.041+512.39+252.173L512.573+250.477C511.558+250.203+510.36+250.01+508.929+250.01C503.052+250.01+501.849+252.852+501.849+258.177C501.849+262.846+502.859+266.698+508.345+266.698C510.025+266.698+511.304+266.485+512.598+266.221L512.39+264.435ZM486.246+255.208C486.246+254.441+486.267+253.426+486.313+252.66C487.328+252.203+489.373+251.868+490.728+251.868C494.814+251.868+495.362+253.254+495.362+256.319L495.362+266.485L497.575+266.485L497.575+255.918C497.575+252.624+497.012+250.01+491.469+250.01C488.541+250.01+485.963+250.569+484.115+251.366C484.059+252.259+484.034+253.188+484.034+254.137L484.034+266.485L486.246+266.485L486.246+255.208ZM468.254+261.79C468.254+259.542+469.067+258.801+470.919+258.425C472.629+258.075+475.233+258.019+477.095+257.984L477.095+261.608C477.095+262.379+477.075+263.394+477.029+264.171C475.634+264.719+474.045+264.902+472.629+264.902C469.569+264.902+468.254+264.298+468.254+261.79M467.224+252.305C468.965+252.056+470.782+251.837+472.665+251.837C476.192+251.837+477.095+252.934+477.095+255.599L477.095+256.319C474.609+256.4+472.127+256.492+470.148+256.796C467.234+257.233+466.041+259.019+466.041+261.846C466.041+265.374+468.036+266.698+472.391+266.698C474.984+266.698+477.269+266.343+479.187+265.404C479.242+264.511+479.278+263.577+479.278+262.623L479.278+254.929C479.278+250.883+476.537+250.01+473.076+250.01C470.767+250.01+468.884+250.279+467.026+250.569L467.224+252.305ZM441.831+255.223C441.831+254.457+441.852+253.441+441.897+252.68C442.902+252.228+444.684+251.894+445.704+251.894C449.033+251.894+449.79+253.243+449.79+256.324L449.79+266.485L452.002+266.485L452.002+255.933C452.002+254.857+451.912+253.842+451.612+252.969C453.002+252.228+454.713+251.894+455.896+251.894C459.22+251.894+459.991+253.243+459.991+256.324L459.991+266.485L462.204+266.485L462.204+255.933C462.204+252.726+461.483+250.015+456.591+250.015C454.358+250.015+452.231+250.538+450.607+251.335C449.78+250.508+448.465+250.015+446.4+250.015C444.126+250.015+441.456+250.63+439.71+251.381C439.644+252.274+439.618+253.208+439.618+254.157L439.618+266.485L441.831+266.485L441.831+255.223ZM430.858+266.485L430.858+255.193C430.858+254.426+430.879+253.401+430.924+252.634C432.026+252.132+433.589+251.898+434.843+251.898C435.335+251.898+435.777+251.914+436.178+251.96L436.36+250.071C435.883+250.03+435.381+250.01+434.843+250.01C432.797+250.01+430.528+250.376+428.737+251.315C428.671+252.208+428.645+253.137+428.645+254.086L428.645+266.485L430.858+266.485ZM417.19+264.815C413.531+264.815+412.287+263.486+412.287+258.349C412.287+253.203+413.531+251.894+417.19+251.894C420.936+251.894+422.103+253.421+422.103+258.349C422.103+263.288+420.905+264.815+417.19+264.815M417.19+266.693C422.438+266.693+424.316+264.303+424.316+258.349C424.316+252.365+422.438+250.015+417.19+250.015C411.947+250.015+410.044+252.284+410.044+258.349C410.044+264.425+411.947+266.693+417.19+266.693M403.827+248.387C403.827+246.275+404.943+245.468+406.75+245.468L407.516+245.468L407.694+243.798C407.263+243.747+406.694+243.712+406.303+243.712C403.182+243.712+401.614+245.386+401.614+248.478L401.614+250.228L398.726+250.228L398.726+251.985L401.614+251.985L401.614+266.485L403.827+266.485L403.827+251.985L407.481+251.985L407.481+250.228L403.827+250.228L403.827+248.387ZM390.666+266.485L390.666+255.193C390.666+254.426+390.686+253.401+390.732+252.634C391.833+252.132+393.396+251.898+394.65+251.898C395.143+251.898+395.584+251.914+395.985+251.96L396.168+250.071C395.691+250.03+395.188+250.01+394.65+250.01C392.605+250.01+390.336+250.376+388.544+251.315C388.478+252.208+388.453+253.137+388.453+254.086L388.453+266.485L390.666+266.485ZM372.42+258.121C372.42+253.908+373.278+251.807+377.373+251.807C380.931+251.807+382.139+253.563+382.139+256.329C382.139+256.664+382.129+257.142+382.104+257.472C380.601+257.664+378.15+257.857+376.724+257.923L372.42+258.121ZM376.993+266.693C380.074+266.693+381.946+266.44+383.814+266.155L383.611+264.359C381.936+264.587+379.982+264.815+377.86+264.815C373.755+264.815+372.744+263.115+372.471+259.801L376.333+259.643C378.607+259.552+382.469+259.187+384.337+258.877C384.362+258.395+384.383+257.791+384.383+257.334C384.383+252.878+382.891+250.01+377.373+250.01C372.024+250.01+370.258+252.447+370.258+258.359C370.258+263.161+371.663+266.693+376.993+266.693M355.397+264.232L355.397+255.127C355.397+254.355+355.422+253.345+355.463+252.569C356.58+252.066+358.133+251.837+359.397+251.837C363.441+251.837+364.512+253.99+364.512+258.359C364.512+262.917+363.726+264.871+359.193+264.871C357.94+264.871+356.412+264.582+355.397+264.232M355.397+266.089C356.844+266.46+358.361+266.698+359.909+266.698C364.767+266.698+366.725+264.582+366.725+258.359C366.725+252.02+364.573+250.01+359.397+250.01C357.336+250.01+355.067+250.376+353.266+251.31C353.209+252.203+353.184+253.132+353.184+254.081L353.184+272.484L355.397+272.484L355.397+266.089Z" opacity="1" fill="#33b7a3"/>
<path d="M332.53+225.518C332.53+231.769+334.086+235.806+336.973+239.156L346.841+234.517C344.598+231.419+343.715+228.686+343.715+224.677L343.715+174.637L332.53+174.637L332.53+225.518ZM283.373+220.598C283.373+230.284+285.097+237.53+301.23+237.53C309.15+237.53+316.032+236.171+321.26+233.368C321.527+230.48+321.639+227.873+321.639+224.831L321.639+192.046L310.538+192.046L310.538+221.327C310.538+223.346+310.468+225.532+310.271+227.354C308.575+228.125+305.786+228.56+303.389+228.56C295.694+228.56+294.558+225.91+294.558+219.589L294.558+192.046L283.373+192.046L283.373+220.598ZM253.657+228.546C246.592+228.546+244.77+225.77+244.77+214.501C244.77+203.273+246.592+200.456+253.657+200.456C260.749+200.456+262.614+203.624+262.614+214.501C262.614+225.42+260.749+228.546+253.657+228.546M253.657+237.545C268.459+237.545+273.799+231.083+273.799+214.501C273.799+197.961+268.459+191.457+253.657+191.457C238.869+191.457+233.529+197.751+233.529+214.501C233.529+231.293+238.869+237.545+253.657+237.545M212.644+200.189C216.68+200.189+220.493+200.806+224.053+201.507L225.105+193.335C219.512+192.046+215.041+191.471+208.621+191.471C199.636+191.471+192.557+194.387+192.557+204.521C192.557+214.192+199.65+216.407+206.672+218.537C210.415+219.673+214.438+220.079+214.438+224.326C214.438+228.756+208.719+228.63+205.299+228.63C201.823+228.63+196.44+227.901+193.09+227.27L192.039+235.596C196.664+236.83+202.902+237.545+208.032+237.545C217.998+237.545+225.763+234.587+225.763+223.948C225.763+213.94+219.512+212.426+212.013+209.889C208.341+208.656+203.659+207.969+203.659+204.044C203.659+200.218+209.069+200.189+212.644+200.189" opacity="1" fill="#33b7a3"/>
<path d="M500.803+212.174C500.803+205.151+501.911+200.035+510.166+200.035C516.53+200.035+518.717+203.245+518.717+209.132C518.717+209.637+518.703+210.408+518.618+210.913C515.997+211.263+511.456+211.641+508.526+211.795L500.803+212.174ZM509.227+237.53C517.946+237.53+524.127+236.605+528.837+235.82L527.912+227.368C523.314+227.943+517.82+228.56+511.75+228.56C505.26+228.56+501.532+226.836+501.126+219.813L508.526+219.435C514.708+219.112+524.646+218.131+529.748+217.206C529.846+215.987+529.902+214.781+529.902+213.604C529.902+200.049+526.538+191.457+510.166+191.457C495.14+191.457+490.038+198.213+490.038+214.459C490.038+227.775+494.019+237.53+509.227+237.53M469.139+201.185L469.139+221.565C469.139+223.598+469.069+225.798+468.873+227.62C467.177+228.405+464.359+228.798+461.892+228.798C452.319+228.798+451.884+221.818+451.884+214.459C451.884+206.273+452.136+200.203+462.873+200.203C464.808+200.203+467.303+200.596+469.139+201.185M469.139+192.41C466.476+191.835+463.294+191.457+460.574+191.457C446.768+191.457+440.643+197.05+440.643+214.459C440.643+232.148+446.922+237.545+461.892+237.545C467.962+237.545+474.886+236.339+479.946+233.395C480.198+230.536+480.324+227.943+480.324+224.887L480.324+174.637L469.139+174.637L469.139+192.41ZM412.511+228.546C405.446+228.546+403.624+225.77+403.624+214.501C403.624+203.273+405.446+200.456+412.511+200.456C419.603+200.456+421.467+203.624+421.467+214.501C421.467+225.42+419.603+228.546+412.511+228.546M412.511+237.545C427.312+237.545+432.653+231.083+432.653+214.501C432.653+197.961+427.312+191.457+412.511+191.457C397.723+191.457+392.382+197.751+392.382+214.501C392.382+231.293+397.723+237.545+412.511+237.545M384.687+227.41C381.925+227.957+379.375+228.462+376.627+228.462C365.358+228.462+364.895+224.158+364.895+214.108C364.895+203.469+366.03+200.372+376.529+200.372C379.277+200.372+381.954+200.877+384.687+201.395L385.584+193.181C382.458+192.214+378.646+191.457+373.558+191.457C357.018+191.457+353.57+199.404+353.57+214.108C353.57+226.121+355.882+237.545+370.951+237.545C376.936+237.545+381.757+236.815+385.668+235.835L384.687+227.41Z" opacity="1" fill="#3276b4"/>
<path d="M108.68+155.523C111.49+152.713+116.046+152.713+118.856+155.523C121.667+158.333+121.667+162.89+118.856+165.7L94.7442+189.812C91.7642+192.6+89.4922+195.207+94.4132+199.939L118.613+224.329C121.423+227.139+121.423+231.695+118.613+234.506C115.802+237.316+111.246+237.316+108.436+234.506L80.8812+206.95C79.2212+205.289+78.8182+204.899+78.4922+204.585C74.5042+200.731+72.5962+198.882+72.8442+194.53C73.0662+190.627+74.8582+188.966+78.2892+185.783L78.3022+185.798L78.3172+185.783C78.9442+185.202+79.7242+184.478+81.6932+182.509L108.68+155.523Z" opacity="1" fill="#33b7a3"/>
<path d="M124.873+189.609C122.063+186.799+117.506+186.799+114.696+189.609C111.886+192.419+111.886+196.976+114.696+199.786L138.809+223.898C141.788+226.685+144.061+229.293+139.139+234.025L114.94+258.415C112.13+261.225+112.13+265.781+114.94+268.592C117.75+271.401+122.307+271.401+125.117+268.592L152.672+241.036C154.332+239.375+154.735+238.984+155.061+238.671C159.049+234.816+160.956+232.968+160.709+228.616C160.486+224.712+158.695+223.051+155.264+219.869L155.251+219.884L155.235+219.869C154.609+219.288+153.829+218.564+151.86+216.595L124.873+189.609Z" opacity="1" fill="#3276b4"/>
</g>
</svg>
